<svg width="32" height="27" viewBox="0 0 32 27" fill="none" xmlns="http://www.w3.org/2000/svg">
<path fill-rule="evenodd" clip-rule="evenodd" d="M28.7723 23.299C30.7418 21.8603 32.0001 19.7321 32.0001 17.3677C32.0001 13.0337 27.8175 9.52106 22.6575 9.52106C17.4981 9.52106 13.3149 13.0337 13.3149 17.3677C13.3149 21.7016 17.4981 25.2149 22.6575 25.2149C23.7235 25.2149 24.7529 25.0612 25.7073 24.7848C25.7941 24.7582 25.8862 24.7433 25.982 24.7433C26.1612 24.7433 26.3241 24.7983 26.478 24.8879L28.5228 26.0783C28.5801 26.1109 28.6355 26.1367 28.7032 26.1367C28.8753 26.1367 29.0146 25.996 29.0146 25.823C29.0146 25.7449 28.9838 25.6676 28.9644 25.5932C28.9526 25.5488 28.7009 24.6017 28.5433 24.0105C28.5254 23.9439 28.5105 23.8799 28.5105 23.8105C28.5105 23.5998 28.6138 23.4128 28.7723 23.299ZM19.5451 16.0312C18.901 16.0312 18.3786 15.5051 18.3786 14.856C18.3786 14.2066 18.901 13.6802 19.5451 13.6802C20.1894 13.6802 20.7116 14.2066 20.7116 14.856C20.7116 15.5051 20.1894 16.0312 19.5451 16.0312ZM25.7706 16.0321C25.1263 16.0321 24.6047 15.506 24.6047 14.8569C24.6047 14.2075 25.1263 13.6811 25.7706 13.6811C26.415 13.6811 26.9371 14.2075 26.9371 14.8569C26.9371 15.506 26.415 16.0321 25.7706 16.0321Z" fill="#F8298A"/>
<path fill-rule="evenodd" clip-rule="evenodd" d="M12.1954 0.858093C6.00367 0.858093 0.984375 5.07408 0.984375 10.2743C0.984375 13.112 2.49466 15.666 4.85797 17.392C5.04784 17.5285 5.17199 17.7524 5.17199 18.006C5.17199 18.0894 5.1543 18.1656 5.13239 18.2459C4.94364 18.9557 4.64141 20.0921 4.62737 20.1452C4.60378 20.2345 4.56726 20.3272 4.56726 20.4204C4.56726 20.6286 4.73438 20.7968 4.94083 20.7968C5.02228 20.7968 5.08829 20.7668 5.15654 20.7269L7.61142 19.2986C7.79568 19.1916 7.99089 19.1256 8.20632 19.1256C8.3212 19.1256 8.43159 19.1427 8.53579 19.1747C9.68094 19.5067 10.916 19.691 12.1954 19.691C12.4021 19.691 12.6071 19.6854 12.811 19.6764C12.5672 18.9416 12.4347 18.1684 12.4347 17.3684C12.4347 12.6258 17.0121 8.78055 22.6592 8.78055C22.8637 8.78055 22.9159 8.78701 23.1173 8.79685C22.273 4.29829 17.7885 0.858093 12.1954 0.858093ZM8.4583 8.59729C7.72577 8.59729 7.13228 7.99902 7.13228 7.26144C7.13228 6.52357 7.72577 5.92558 8.4583 5.92558C9.18971 5.92558 9.78321 6.52357 9.78321 7.26144C9.78321 7.99902 9.18971 8.59729 8.4583 8.59729ZM15.9321 8.59701C15.2001 8.59701 14.6066 7.99902 14.6066 7.26144C14.6066 6.52357 15.2001 5.92558 15.9321 5.92558C16.6641 5.92558 17.2576 6.52357 17.2576 7.26144C17.2576 7.99902 16.6641 8.59701 15.9321 8.59701Z" fill="#F8298A"/>
</svg>
