<svg width="119" height="68" viewBox="0 0 119 68" fill="none" xmlns="http://www.w3.org/2000/svg">
<g filter="url(#filter0_dd_2933_5150)">
<mask id="path-1-outside-1_2933_5150" maskUnits="userSpaceOnUse" x="5.5" y="12" width="28" height="32" fill="black">
<rect fill="white" x="5.5" y="12" width="28" height="32"/>
<path d="M16.3498 41V35.1037H10.1338V32.12H16.3498V29.9533H10.1338V26.9341H14.9645L9.10374 15.2125H15.6039L17.522 20.3984C17.8535 21.2746 18.1732 22.1626 18.481 23.0624C18.8125 23.9622 19.1559 24.8502 19.5111 25.7264H19.6532C19.9847 24.8266 20.3162 23.9386 20.6477 23.0624C20.9793 22.1626 21.3108 21.2746 21.6423 20.3984L23.5249 15.2125H29.8829L23.9866 26.9341H28.8529V29.9533H22.6369V32.12H28.8529V35.1037H22.6369V41H16.3498Z"/>
</mask>
<path d="M16.3498 41V35.1037H10.1338V32.12H16.3498V29.9533H10.1338V26.9341H14.9645L9.10374 15.2125H15.6039L17.522 20.3984C17.8535 21.2746 18.1732 22.1626 18.481 23.0624C18.8125 23.9622 19.1559 24.8502 19.5111 25.7264H19.6532C19.9847 24.8266 20.3162 23.9386 20.6477 23.0624C20.9793 22.1626 21.3108 21.2746 21.6423 20.3984L23.5249 15.2125H29.8829L23.9866 26.9341H28.8529V29.9533H22.6369V32.12H28.8529V35.1037H22.6369V41H16.3498Z" fill="#00AEFF"/>
<path d="M16.3498 41H13.3898C13.3898 42.6348 14.7151 43.96 16.3498 43.96V41ZM16.3498 35.1037H19.3098C19.3098 33.4689 17.9846 32.1437 16.3498 32.1437V35.1037ZM10.1338 35.1037H7.17382C7.17382 36.7384 8.49906 38.0637 10.1338 38.0637V35.1037ZM10.1338 32.12V29.16C8.49906 29.16 7.17382 30.4852 7.17382 32.12H10.1338ZM16.3498 32.12V35.08C17.9846 35.08 19.3098 33.7548 19.3098 32.12H16.3498ZM16.3498 29.9533H19.3098C19.3098 28.3185 17.9846 26.9933 16.3498 26.9933V29.9533ZM10.1338 29.9533H7.17382C7.17382 31.588 8.49906 32.9133 10.1338 32.9133V29.9533ZM10.1338 26.9341V23.9741C8.49906 23.9741 7.17382 25.2993 7.17382 26.9341H10.1338ZM14.9645 26.9341V29.8941C15.9904 29.8941 16.9431 29.3629 17.4825 28.4902C18.0218 27.6176 18.0708 26.5279 17.612 25.6103L14.9645 26.9341ZM9.10374 15.2125V12.2525C8.07787 12.2525 7.12514 12.7837 6.58581 13.6563C6.04648 14.529 5.99745 15.6187 6.45624 16.5362L9.10374 15.2125ZM15.6039 15.2125L18.3801 14.1857C17.9504 13.0238 16.8426 12.2525 15.6039 12.2525V15.2125ZM17.522 20.3984L14.7458 21.4252C14.7483 21.4321 14.7509 21.439 14.7535 21.4459L17.522 20.3984ZM18.481 23.0624L15.6804 24.0205C15.6878 24.0423 15.6956 24.0641 15.7035 24.0857L18.481 23.0624ZM19.5111 25.7264L16.768 26.8385C17.2208 27.9555 18.3058 28.6864 19.5111 28.6864V25.7264ZM19.6532 25.7264V28.6864C20.8933 28.6864 22.002 27.9133 22.4307 26.7497L19.6532 25.7264ZM20.6477 23.0624L23.4162 24.1099C23.4192 24.1019 23.4223 24.0938 23.4252 24.0857L20.6477 23.0624ZM21.6423 20.3984L24.4107 21.4459C24.4155 21.4335 24.4201 21.421 24.4246 21.4084L21.6423 20.3984ZM23.5249 15.2125V12.2525C22.2796 12.2525 21.1674 13.0319 20.7425 14.2024L23.5249 15.2125ZM29.8829 15.2125L32.5272 16.5426C32.9888 15.625 32.9417 14.5338 32.4027 13.6594C31.8638 12.785 30.9101 12.2525 29.8829 12.2525V15.2125ZM23.9866 26.9341L21.3423 25.6039C20.8808 26.5215 20.9279 27.6128 21.4668 28.4872C22.0058 29.3616 22.9595 29.8941 23.9866 29.8941V26.9341ZM28.8529 26.9341H31.8129C31.8129 25.2993 30.4876 23.9741 28.8529 23.9741V26.9341ZM28.8529 29.9533V32.9133C30.4876 32.9133 31.8129 31.588 31.8129 29.9533H28.8529ZM22.6369 29.9533V26.9933C21.0021 26.9933 19.6769 28.3185 19.6769 29.9533H22.6369ZM22.6369 32.12H19.6769C19.6769 33.7548 21.0021 35.08 22.6369 35.08V32.12ZM28.8529 32.12H31.8129C31.8129 30.4852 30.4876 29.16 28.8529 29.16V32.12ZM28.8529 35.1037V38.0637C30.4876 38.0637 31.8129 36.7384 31.8129 35.1037H28.8529ZM22.6369 35.1037V32.1437C21.0021 32.1437 19.6769 33.4689 19.6769 35.1037H22.6369ZM22.6369 41V43.96C24.2716 43.96 25.5969 42.6348 25.5969 41H22.6369ZM16.3498 41H19.3098V35.1037H16.3498H13.3898V41H16.3498ZM16.3498 35.1037V32.1437H10.1338V35.1037V38.0637H16.3498V35.1037ZM10.1338 35.1037H13.0938V32.12H10.1338H7.17382V35.1037H10.1338ZM10.1338 32.12V35.08H16.3498V32.12V29.16H10.1338V32.12ZM16.3498 32.12H19.3098V29.9533H16.3498H13.3898V32.12H16.3498ZM16.3498 29.9533V26.9933H10.1338V29.9533V32.9133H16.3498V29.9533ZM10.1338 29.9533H13.0938V26.9341H10.1338H7.17382V29.9533H10.1338ZM10.1338 26.9341V29.8941H14.9645V26.9341V23.9741H10.1338V26.9341ZM14.9645 26.9341L17.612 25.6103L11.7512 13.8887L9.10374 15.2125L6.45624 16.5362L12.317 28.2578L14.9645 26.9341ZM9.10374 15.2125V18.1725H15.6039V15.2125V12.2525H9.10374V15.2125ZM15.6039 15.2125L12.8277 16.2393L14.7458 21.4252L17.522 20.3984L20.2982 19.3716L18.3801 14.1857L15.6039 15.2125ZM17.522 20.3984L14.7535 21.4459C15.0737 22.292 15.3826 23.1502 15.6804 24.0205L18.481 23.0624L21.2817 22.1043C20.9637 21.1749 20.6333 20.2571 20.2904 19.3509L17.522 20.3984ZM18.481 23.0624L15.7035 24.0857C16.0459 25.0149 16.4007 25.9325 16.768 26.8385L19.5111 25.7264L22.2542 24.6143C21.9111 23.768 21.5792 22.9096 21.2585 22.0391L18.481 23.0624ZM19.5111 25.7264V28.6864H19.6532V25.7264V22.7664H19.5111V25.7264ZM19.6532 25.7264L22.4307 26.7497C22.7593 25.8577 23.0878 24.9778 23.4162 24.1099L20.6477 23.0624L17.8793 22.0149C17.5447 22.8993 17.2101 23.7954 16.8757 24.7031L19.6532 25.7264ZM20.6477 23.0624L23.4252 24.0857C23.7538 23.1937 24.0824 22.3138 24.4107 21.4459L21.6423 20.3984L18.8739 19.3509C18.5392 20.2353 18.2047 21.1314 17.8702 22.0391L20.6477 23.0624ZM21.6423 20.3984L24.4246 21.4084L26.3072 16.2225L23.5249 15.2125L20.7425 14.2024L18.86 19.3884L21.6423 20.3984ZM23.5249 15.2125V18.1725H29.8829V15.2125V12.2525H23.5249V15.2125ZM29.8829 15.2125L27.2386 13.8823L21.3423 25.6039L23.9866 26.9341L26.6309 28.2642L32.5272 16.5426L29.8829 15.2125ZM23.9866 26.9341V29.8941H28.8529V26.9341V23.9741H23.9866V26.9341ZM28.8529 26.9341H25.8929V29.9533H28.8529H31.8129V26.9341H28.8529ZM28.8529 29.9533V26.9933H22.6369V29.9533V32.9133H28.8529V29.9533ZM22.6369 29.9533H19.6769V32.12H22.6369H25.5969V29.9533H22.6369ZM22.6369 32.12V35.08H28.8529V32.12V29.16H22.6369V32.12ZM28.8529 32.12H25.8929V35.1037H28.8529H31.8129V32.12H28.8529ZM28.8529 35.1037V32.1437H22.6369V35.1037V38.0637H28.8529V35.1037ZM22.6369 35.1037H19.6769V41H22.6369H25.5969V35.1037H22.6369ZM22.6369 41V38.04H16.3498V41V43.96H22.6369V41Z" fill="white" mask="url(#path-1-outside-1_2933_5150)"/>
</g>
<g filter="url(#filter1_dd_2933_5150)">
<mask id="path-3-outside-2_2933_5150" maskUnits="userSpaceOnUse" x="33.5" y="0" width="80" height="56" fill="black">
<rect fill="white" x="33.5" width="80" height="56"/>
<path d="M55.236 52.896C53.0173 52.896 50.8413 52.448 48.708 51.552C46.5747 50.6133 44.6547 49.184 42.948 47.264C41.284 45.3013 39.94 42.784 38.916 39.712C37.9347 36.64 37.444 32.928 37.444 28.576C37.444 24.2667 37.956 20.5333 38.98 17.376C40.0467 14.2187 41.4547 11.616 43.204 9.568C44.996 7.52 47.0227 6.00533 49.284 5.024C51.5453 4 53.9133 3.488 56.388 3.488C59.5453 3.488 62.276 4.064 64.58 5.216C66.884 6.32533 68.7827 7.648 70.276 9.184L64.26 15.904C63.492 15.0507 62.4467 14.2827 61.124 13.6C59.8013 12.9173 58.4787 12.576 57.156 12.576C55.4067 12.576 53.828 13.088 52.42 14.112C51.012 15.0933 49.8813 16.7573 49.028 19.104C48.2173 21.408 47.812 24.5653 47.812 28.576C47.812 32.7147 48.1533 35.936 48.836 38.24C49.5613 40.5013 50.4573 42.1013 51.524 43.04C52.6333 43.936 53.7853 44.384 54.98 44.384C56.004 44.384 56.9213 44.128 57.732 43.616C58.5853 43.0613 59.268 42.2293 59.78 41.12C60.292 39.968 60.548 38.496 60.548 36.704C60.548 34.9547 60.2707 33.5893 59.716 32.608C59.204 31.584 58.5213 30.8587 57.668 30.432C56.8147 30.0053 55.8547 29.792 54.788 29.792C53.5933 29.792 52.3773 30.1333 51.14 30.816C49.9453 31.4987 48.8573 32.7147 47.876 34.464L47.364 27.104C48.132 25.952 49.0707 24.992 50.18 24.224C51.332 23.4133 52.5053 22.816 53.7 22.432C54.9373 22.0053 56.0253 21.792 56.964 21.792C59.6093 21.792 61.9773 22.3253 64.068 23.392C66.2013 24.416 67.8653 26.0373 69.06 28.256C70.2973 30.432 70.916 33.248 70.916 36.704C70.916 40.0747 70.1907 42.976 68.74 45.408C67.332 47.7973 65.4333 49.6533 63.044 50.976C60.6973 52.256 58.0947 52.896 55.236 52.896ZM93.02 52.896C89.692 52.896 86.748 51.9573 84.188 50.08C81.6707 48.2027 79.6867 45.408 78.236 41.696C76.828 37.984 76.124 33.3973 76.124 27.936C76.124 22.4747 76.828 17.9307 78.236 14.304C79.6867 10.6773 81.6707 7.968 84.188 6.176C86.748 4.384 89.692 3.488 93.02 3.488C96.3907 3.488 99.3347 4.40533 101.852 6.24C104.369 8.032 106.332 10.7413 107.74 14.368C109.148 17.952 109.852 22.4747 109.852 27.936C109.852 33.3973 109.148 37.984 107.74 41.696C106.332 45.408 104.369 48.2027 101.852 50.08C99.3347 51.9573 96.3907 52.896 93.02 52.896ZM93.02 44.064C94.172 44.064 95.196 43.6373 96.092 42.784C97.0307 41.888 97.756 40.288 98.268 37.984C98.8227 35.6373 99.1 32.288 99.1 27.936C99.1 23.584 98.8227 20.2773 98.268 18.016C97.756 15.7547 97.0307 14.2187 96.092 13.408C95.196 12.5973 94.172 12.192 93.02 12.192C91.9107 12.192 90.8867 12.5973 89.948 13.408C89.0093 14.2187 88.2627 15.7547 87.708 18.016C87.1533 20.2773 86.876 23.584 86.876 27.936C86.876 32.288 87.1533 35.6373 87.708 37.984C88.2627 40.288 89.0093 41.888 89.948 42.784C90.8867 43.6373 91.9107 44.064 93.02 44.064Z"/>
</mask>
<path d="M55.236 52.896C53.0173 52.896 50.8413 52.448 48.708 51.552C46.5747 50.6133 44.6547 49.184 42.948 47.264C41.284 45.3013 39.94 42.784 38.916 39.712C37.9347 36.64 37.444 32.928 37.444 28.576C37.444 24.2667 37.956 20.5333 38.98 17.376C40.0467 14.2187 41.4547 11.616 43.204 9.568C44.996 7.52 47.0227 6.00533 49.284 5.024C51.5453 4 53.9133 3.488 56.388 3.488C59.5453 3.488 62.276 4.064 64.58 5.216C66.884 6.32533 68.7827 7.648 70.276 9.184L64.26 15.904C63.492 15.0507 62.4467 14.2827 61.124 13.6C59.8013 12.9173 58.4787 12.576 57.156 12.576C55.4067 12.576 53.828 13.088 52.42 14.112C51.012 15.0933 49.8813 16.7573 49.028 19.104C48.2173 21.408 47.812 24.5653 47.812 28.576C47.812 32.7147 48.1533 35.936 48.836 38.24C49.5613 40.5013 50.4573 42.1013 51.524 43.04C52.6333 43.936 53.7853 44.384 54.98 44.384C56.004 44.384 56.9213 44.128 57.732 43.616C58.5853 43.0613 59.268 42.2293 59.78 41.12C60.292 39.968 60.548 38.496 60.548 36.704C60.548 34.9547 60.2707 33.5893 59.716 32.608C59.204 31.584 58.5213 30.8587 57.668 30.432C56.8147 30.0053 55.8547 29.792 54.788 29.792C53.5933 29.792 52.3773 30.1333 51.14 30.816C49.9453 31.4987 48.8573 32.7147 47.876 34.464L47.364 27.104C48.132 25.952 49.0707 24.992 50.18 24.224C51.332 23.4133 52.5053 22.816 53.7 22.432C54.9373 22.0053 56.0253 21.792 56.964 21.792C59.6093 21.792 61.9773 22.3253 64.068 23.392C66.2013 24.416 67.8653 26.0373 69.06 28.256C70.2973 30.432 70.916 33.248 70.916 36.704C70.916 40.0747 70.1907 42.976 68.74 45.408C67.332 47.7973 65.4333 49.6533 63.044 50.976C60.6973 52.256 58.0947 52.896 55.236 52.896ZM93.02 52.896C89.692 52.896 86.748 51.9573 84.188 50.08C81.6707 48.2027 79.6867 45.408 78.236 41.696C76.828 37.984 76.124 33.3973 76.124 27.936C76.124 22.4747 76.828 17.9307 78.236 14.304C79.6867 10.6773 81.6707 7.968 84.188 6.176C86.748 4.384 89.692 3.488 93.02 3.488C96.3907 3.488 99.3347 4.40533 101.852 6.24C104.369 8.032 106.332 10.7413 107.74 14.368C109.148 17.952 109.852 22.4747 109.852 27.936C109.852 33.3973 109.148 37.984 107.74 41.696C106.332 45.408 104.369 48.2027 101.852 50.08C99.3347 51.9573 96.3907 52.896 93.02 52.896ZM93.02 44.064C94.172 44.064 95.196 43.6373 96.092 42.784C97.0307 41.888 97.756 40.288 98.268 37.984C98.8227 35.6373 99.1 32.288 99.1 27.936C99.1 23.584 98.8227 20.2773 98.268 18.016C97.756 15.7547 97.0307 14.2187 96.092 13.408C95.196 12.5973 94.172 12.192 93.02 12.192C91.9107 12.192 90.8867 12.5973 89.948 13.408C89.0093 14.2187 88.2627 15.7547 87.708 18.016C87.1533 20.2773 86.876 23.584 86.876 27.936C86.876 32.288 87.1533 35.6373 87.708 37.984C88.2627 40.288 89.0093 41.888 89.948 42.784C90.8867 43.6373 91.9107 44.064 93.02 44.064Z" fill="#00AEFF"/>
<path d="M48.708 51.552L47.5159 54.2613C47.5311 54.268 47.5464 54.2746 47.5618 54.2811L48.708 51.552ZM42.948 47.264L40.6902 49.1782C40.7052 49.1958 40.7203 49.2133 40.7357 49.2305L42.948 47.264ZM38.916 39.712L36.0964 40.6127C36.1001 40.6245 36.104 40.6363 36.1079 40.648L38.916 39.712ZM38.98 17.376L36.1757 16.4286C36.1719 16.44 36.1681 16.4514 36.1644 16.4628L38.98 17.376ZM43.204 9.568L40.9764 7.61882C40.9686 7.62768 40.9609 7.63657 40.9533 7.64552L43.204 9.568ZM49.284 5.024L50.4624 7.73934C50.4766 7.73315 50.4909 7.72684 50.505 7.72042L49.284 5.024ZM64.58 5.216L63.2562 7.8635C63.2694 7.87009 63.2826 7.87658 63.2959 7.88297L64.58 5.216ZM70.276 9.184L72.4814 11.1583C73.5187 9.9996 73.4824 8.23573 72.3983 7.12065L70.276 9.184ZM64.26 15.904L62.0598 17.8841C62.6221 18.5089 63.4234 18.8651 64.2639 18.864C65.1044 18.8629 65.9048 18.5045 66.4654 17.8783L64.26 15.904ZM61.124 13.6L59.7664 16.2303L59.7664 16.2303L61.124 13.6ZM52.42 14.112L54.1125 16.5404C54.1288 16.529 54.1449 16.5175 54.161 16.5059L52.42 14.112ZM49.028 19.104L46.2462 18.0924C46.2427 18.1021 46.2392 18.1118 46.2358 18.1216L49.028 19.104ZM48.836 38.24L45.998 39.0809C46.0042 39.102 46.0107 39.1231 46.0174 39.1441L48.836 38.24ZM51.524 43.04L49.5685 45.2621C49.5998 45.2896 49.6317 45.3165 49.6641 45.3427L51.524 43.04ZM57.732 43.616L59.3126 46.1186C59.3235 46.1118 59.3344 46.1048 59.3452 46.0978L57.732 43.616ZM59.78 41.12L62.4676 42.3604C62.4734 42.3477 62.4792 42.335 62.4849 42.3222L59.78 41.12ZM59.716 32.608L57.0685 33.9318C57.0909 33.9766 57.1145 34.0208 57.1391 34.0645L59.716 32.608ZM51.14 30.816L49.7101 28.2243C49.6972 28.2314 49.6843 28.2387 49.6714 28.246L51.14 30.816ZM47.876 34.464L44.9231 34.6694C45.0139 35.9746 45.9509 37.0654 47.2275 37.3521C48.5041 37.6387 49.8174 37.0533 50.4575 35.9122L47.876 34.464ZM47.364 27.104L44.9011 25.4621C44.538 26.0067 44.3657 26.6564 44.4111 27.3094L47.364 27.104ZM50.18 24.224L51.8649 26.6577C51.8711 26.6534 51.8773 26.6491 51.8835 26.6447L50.18 24.224ZM53.7 22.432L54.6058 25.25C54.6256 25.2436 54.6453 25.2371 54.6649 25.2303L53.7 22.432ZM64.068 23.392L62.7228 26.0287C62.7441 26.0395 62.7655 26.0501 62.7871 26.0605L64.068 23.392ZM69.06 28.256L66.4538 29.6593C66.4646 29.6794 66.4756 29.6993 66.4869 29.7191L69.06 28.256ZM68.74 45.408L66.1979 43.8917C66.1952 43.8962 66.1925 43.9007 66.1898 43.9052L68.74 45.408ZM63.044 50.976L64.4614 53.5746C64.4668 53.5716 64.4722 53.5687 64.4776 53.5657L63.044 50.976ZM55.236 52.896V49.936C53.4278 49.936 51.6405 49.5732 49.8542 48.8229L48.708 51.552L47.5618 54.2811C50.0422 55.3228 52.6069 55.856 55.236 55.856V52.896ZM48.708 51.552L49.9001 48.8427C48.1946 48.0922 46.6134 46.9322 45.1603 45.2975L42.948 47.264L40.7357 49.2305C42.6959 51.4358 44.9548 53.1344 47.5159 54.2613L48.708 51.552ZM42.948 47.264L45.2058 45.3498C43.84 43.739 42.6584 41.5789 41.7241 38.776L38.916 39.712L36.1079 40.648C37.2216 43.9891 38.728 46.8637 40.6902 49.1782L42.948 47.264ZM38.916 39.712L41.7356 38.8113C40.8734 36.1121 40.404 32.7218 40.404 28.576H37.444H34.484C34.484 33.1342 34.9959 37.1679 36.0964 40.6127L38.916 39.712ZM37.444 28.576H40.404C40.404 24.4894 40.8909 21.0786 41.7956 18.2892L38.98 17.376L36.1644 16.4628C35.0211 19.988 34.484 24.0439 34.484 28.576H37.444ZM38.98 17.376L41.7843 18.3234C42.758 15.4414 44.0009 13.1925 45.4547 11.4905L43.204 9.568L40.9533 7.64552C38.9084 10.0395 37.3354 12.996 36.1757 16.4286L38.98 17.376ZM43.204 9.568L45.4316 11.5172C46.9653 9.76445 48.6434 8.52869 50.4624 7.73934L49.284 5.024L48.1056 2.30866C45.4019 3.48198 43.0267 5.27555 40.9764 7.61882L43.204 9.568ZM49.284 5.024L50.505 7.72042C52.384 6.86958 54.3358 6.448 56.388 6.448V3.488V0.527999C53.4909 0.527999 50.7067 1.13042 48.063 2.32757L49.284 5.024ZM56.388 3.488V6.448C59.1878 6.448 61.4457 6.95821 63.2562 7.8635L64.58 5.216L65.9038 2.5685C63.1063 1.16979 59.9029 0.527999 56.388 0.527999V3.488ZM64.58 5.216L63.2959 7.88297C65.3463 8.87017 66.944 10.0031 68.1537 11.2473L70.276 9.184L72.3983 7.12065C70.6213 5.2929 68.4217 3.78049 65.8641 2.54903L64.58 5.216ZM70.276 9.184L68.0706 7.20967L62.0546 13.9297L64.26 15.904L66.4654 17.8783L72.4814 11.1583L70.276 9.184ZM64.26 15.904L66.4602 13.9239C65.3937 12.7389 64.0326 11.7702 62.4816 10.9697L61.124 13.6L59.7664 16.2303C60.8608 16.7951 61.5903 17.3625 62.0598 17.8841L64.26 15.904ZM61.124 13.6L62.4816 10.9697C60.7924 10.0978 59.0075 9.616 57.156 9.616V12.576V15.536C57.9499 15.536 58.8103 15.7368 59.7664 16.2303L61.124 13.6ZM57.156 12.576V9.616C54.7843 9.616 52.5955 10.3243 50.679 11.7181L52.42 14.112L54.161 16.5059C55.0605 15.8517 56.029 15.536 57.156 15.536V12.576ZM52.42 14.112L50.7275 11.6836C48.6386 13.1395 47.2174 15.4216 46.2462 18.0924L49.028 19.104L51.8098 20.1156C52.5452 18.0931 53.3854 17.0471 54.1125 16.5404L52.42 14.112ZM49.028 19.104L46.2358 18.1216C45.2657 20.8788 44.852 24.4169 44.852 28.576H47.812H50.772C50.772 24.7137 51.169 21.9372 51.8202 20.0864L49.028 19.104ZM47.812 28.576H44.852C44.852 32.8257 45.1966 36.3764 45.998 39.0809L48.836 38.24L51.674 37.3991C51.11 35.4956 50.772 32.6036 50.772 28.576H47.812ZM48.836 38.24L46.0174 39.1441C46.8087 41.6109 47.9143 43.8064 49.5685 45.2621L51.524 43.04L53.4795 40.8179C53.0003 40.3963 52.314 39.3918 51.6546 37.3359L48.836 38.24ZM51.524 43.04L49.6641 45.3427C51.194 46.5784 52.9837 47.344 54.98 47.344V44.384V41.424C54.587 41.424 54.0727 41.2936 53.3839 40.7373L51.524 43.04ZM54.98 44.384V47.344C56.5238 47.344 57.9964 46.9499 59.3126 46.1186L57.732 43.616L56.1514 41.1134C55.8463 41.3061 55.4842 41.424 54.98 41.424V44.384ZM57.732 43.616L59.3452 46.0978C60.7529 45.1827 61.769 43.8741 62.4676 42.3604L59.78 41.12L57.0924 39.8796C56.767 40.5846 56.4177 40.9399 56.1188 41.1342L57.732 43.616ZM59.78 41.12L62.4849 42.3222C63.2203 40.6675 63.508 38.7483 63.508 36.704H60.548H57.588C57.588 38.2437 57.3637 39.2685 57.0751 39.9178L59.78 41.12ZM60.548 36.704H63.508C63.508 34.7011 63.2004 32.7572 62.2929 31.1515L59.716 32.608L57.1391 34.0645C57.3409 34.4215 57.588 35.2083 57.588 36.704H60.548ZM59.716 32.608L62.3635 31.2842C61.624 29.8052 60.5255 28.5514 58.9918 27.7845L57.668 30.432L56.3443 33.0795C56.5172 33.166 56.784 33.3628 57.0685 33.9318L59.716 32.608ZM57.668 30.432L58.9918 27.7845C57.681 27.1291 56.2594 26.832 54.788 26.832V29.792V32.752C55.45 32.752 55.9483 32.8815 56.3443 33.0795L57.668 30.432ZM54.788 29.792V26.832C53.009 26.832 51.3051 27.3443 49.7101 28.2243L51.14 30.816L52.5699 33.4077C53.4496 32.9224 54.1777 32.752 54.788 32.752V29.792ZM51.14 30.816L49.6714 28.246C47.8448 29.2898 46.4254 30.9997 45.2945 33.0158L47.876 34.464L50.4575 35.9122C51.2892 34.4296 52.0458 33.7076 52.6086 33.386L51.14 30.816ZM47.876 34.464L50.8289 34.2586L50.3169 26.8986L47.364 27.104L44.4111 27.3094L44.9231 34.6694L47.876 34.464ZM47.364 27.104L49.8269 28.7459C50.3933 27.8962 51.0706 27.2076 51.8649 26.6577L50.18 24.224L48.4951 21.7903C47.0708 22.7764 45.8707 24.0078 44.9011 25.4621L47.364 27.104ZM50.18 24.224L51.8835 26.6447C52.8207 25.9852 53.728 25.5322 54.6058 25.25L53.7 22.432L52.7942 19.614C51.2827 20.0998 49.8433 20.8415 48.4765 21.8033L50.18 24.224ZM53.7 22.432L54.6649 25.2303C55.7048 24.8717 56.455 24.752 56.964 24.752V21.792V18.832C55.5956 18.832 54.1699 19.1389 52.7351 19.6337L53.7 22.432ZM56.964 21.792V24.752C59.2017 24.752 61.099 25.2002 62.7228 26.0287L64.068 23.392L65.4132 20.7553C62.8556 19.4504 60.017 18.832 56.964 18.832V21.792ZM64.068 23.392L62.7871 26.0605C64.3183 26.7955 65.5355 27.954 66.4538 29.6593L69.06 28.256L71.6662 26.8527C70.1951 24.1207 68.0843 22.0365 65.3489 20.7235L64.068 23.392ZM69.06 28.256L66.4869 29.7191C67.3922 31.3113 67.956 33.5748 67.956 36.704H70.916H73.876C73.876 32.9212 73.2024 29.5527 71.6331 26.7929L69.06 28.256ZM70.916 36.704H67.956C67.956 39.643 67.327 41.9987 66.1979 43.8917L68.74 45.408L71.2821 46.9243C73.0543 43.9533 73.876 40.5063 73.876 36.704H70.916ZM68.74 45.408L66.1898 43.9052C65.0459 45.8465 63.5297 47.3239 61.6104 48.3863L63.044 50.976L64.4776 53.5657C67.337 51.9828 69.6181 49.7482 71.2902 46.9108L68.74 45.408ZM63.044 50.976L61.6266 48.3774C59.7448 49.4039 57.6348 49.936 55.236 49.936V52.896V55.856C58.5545 55.856 61.6499 55.1081 64.4614 53.5746L63.044 50.976ZM84.188 50.08L82.4184 52.4528C82.4248 52.4576 82.4312 52.4623 82.4376 52.467L84.188 50.08ZM78.236 41.696L75.4684 42.7458C75.4719 42.755 75.4755 42.7642 75.4791 42.7734L78.236 41.696ZM78.236 14.304L75.4877 13.2047C75.484 13.214 75.4803 13.2234 75.4767 13.2327L78.236 14.304ZM84.188 6.176L82.4906 3.75107C82.4842 3.75555 82.4778 3.76006 82.4714 3.76459L84.188 6.176ZM101.852 6.24L100.109 8.6321C100.118 8.63859 100.126 8.64502 100.135 8.65141L101.852 6.24ZM107.74 14.368L104.981 15.4393L104.985 15.4503L107.74 14.368ZM107.74 41.696L104.972 40.6462L104.972 40.6462L107.74 41.696ZM101.852 50.08L100.082 47.7072L101.852 50.08ZM96.092 42.784L98.1334 44.9274L98.1358 44.9251L96.092 42.784ZM98.268 37.984L95.3874 37.3031C95.3843 37.316 95.3814 37.3289 95.3785 37.3419L98.268 37.984ZM98.268 18.016L95.3811 18.6696C95.385 18.6868 95.389 18.704 95.3932 18.7211L98.268 18.016ZM96.092 13.408L94.1061 15.6029C94.123 15.6182 94.1401 15.6333 94.1573 15.6482L96.092 13.408ZM89.948 13.408L88.0133 11.1678L88.0133 11.1678L89.948 13.408ZM87.708 18.016L90.5828 18.7211L90.5828 18.7211L87.708 18.016ZM87.708 37.984L84.8274 38.6649L84.8302 38.6768L87.708 37.984ZM89.948 42.784L87.9042 44.9251C87.9216 44.9417 87.9391 44.9581 87.9569 44.9742L89.948 42.784ZM93.02 52.896V49.936C90.2891 49.936 87.9652 49.1793 85.9384 47.693L84.188 50.08L82.4376 52.467C85.5308 54.7353 89.0949 55.856 93.02 55.856V52.896ZM84.188 50.08L85.9576 47.7072C83.989 46.2391 82.2958 43.9523 80.9929 40.6186L78.236 41.696L75.4791 42.7734C77.0775 46.8637 79.3523 50.1662 82.4184 52.4528L84.188 50.08ZM78.236 41.696L81.0036 40.6462C79.7608 37.3697 79.084 33.1641 79.084 27.936H76.124H73.164C73.164 33.6306 73.8952 38.5983 75.4684 42.7458L78.236 41.696ZM76.124 27.936H79.084C79.084 22.7042 79.7618 18.5525 80.9953 15.3753L78.236 14.304L75.4767 13.2327C73.8942 17.3088 73.164 22.2451 73.164 27.936H76.124ZM78.236 14.304L80.9843 15.4033C82.2794 12.1655 83.958 9.97311 85.9046 8.58741L84.188 6.176L82.4714 3.76459C79.3833 5.96289 77.0939 9.1892 75.4877 13.2047L78.236 14.304ZM84.188 6.176L85.8854 8.60093C87.9148 7.18037 90.2576 6.448 93.02 6.448V3.488V0.527999C89.1264 0.527999 85.5812 1.58763 82.4906 3.75107L84.188 6.176ZM93.02 3.488V6.448C95.8184 6.448 98.1399 7.19727 100.109 8.6321L101.852 6.24L103.595 3.84789C100.529 1.6134 96.9629 0.527999 93.02 0.527999V3.488ZM101.852 6.24L100.135 8.65141C102.073 10.0308 103.728 12.2122 104.981 15.4393L107.74 14.368L110.499 13.2967C108.936 9.27042 106.665 6.03315 103.569 3.82859L101.852 6.24ZM107.74 14.368L104.985 15.4503C106.214 18.5777 106.892 22.7022 106.892 27.936H109.852H112.812C112.812 22.2471 112.082 17.3263 110.495 13.2857L107.74 14.368ZM109.852 27.936H106.892C106.892 33.1641 106.215 37.3697 104.972 40.6462L107.74 41.696L110.508 42.7458C112.081 38.5983 112.812 33.6306 112.812 27.936H109.852ZM107.74 41.696L104.972 40.6462C103.712 43.9695 102.042 46.2455 100.082 47.7072L101.852 50.08L103.622 52.4528C106.696 50.1598 108.952 46.8465 110.508 42.7458L107.74 41.696ZM101.852 50.08L100.082 47.7072C98.1148 49.1746 95.8026 49.936 93.02 49.936V52.896V55.856C96.9787 55.856 100.555 54.7401 103.622 52.4528L101.852 50.08ZM93.02 44.064V47.024C94.9917 47.024 96.7317 46.2623 98.1334 44.9274L96.092 42.784L94.0506 40.6406C93.6603 41.0123 93.3523 41.104 93.02 41.104V44.064ZM96.092 42.784L98.1358 44.9251C99.7229 43.4101 100.608 41.0972 101.158 38.6261L98.268 37.984L95.3785 37.3419C94.9036 39.4788 94.3384 40.3659 94.0482 40.6429L96.092 42.784ZM98.268 37.984L101.149 38.6649C101.782 35.9844 102.06 32.3654 102.06 27.936H99.1H96.14C96.14 32.2106 95.8631 35.2903 95.3874 37.3031L98.268 37.984ZM99.1 27.936H102.06C102.06 23.5138 101.783 19.9228 101.143 17.3109L98.268 18.016L95.3932 18.7211C95.8619 20.6318 96.14 23.6542 96.14 27.936H99.1ZM98.268 18.016L101.155 17.3624C100.608 14.9468 99.709 12.6207 98.0267 11.1678L96.092 13.408L94.1573 15.6482C94.3523 15.8167 94.904 16.5626 95.3811 18.6696L98.268 18.016ZM96.092 13.408L98.0779 11.2131C96.6668 9.93637 94.9443 9.232 93.02 9.232V12.192V15.152C93.3997 15.152 93.7252 15.2583 94.1061 15.6029L96.092 13.408ZM93.02 12.192V9.232C91.1154 9.232 89.4217 9.95146 88.0133 11.1678L89.948 13.408L91.8827 15.6482C92.3516 15.2432 92.7059 15.152 93.02 15.152V12.192ZM89.948 13.408L88.0133 11.1678C86.352 12.6025 85.4242 14.9017 84.8332 17.3109L87.708 18.016L90.5828 18.7211C91.1012 16.6077 91.6667 15.8348 91.8827 15.6482L89.948 13.408ZM87.708 18.016L84.8332 17.3109C84.1925 19.9228 83.916 23.5138 83.916 27.936H86.876H89.836C89.836 23.6542 90.1141 20.6318 90.5828 18.7211L87.708 18.016ZM86.876 27.936H83.916C83.916 32.3654 84.1938 35.9844 84.8274 38.6649L87.708 37.984L90.5886 37.3031C90.1129 35.2903 89.836 32.2106 89.836 27.936H86.876ZM87.708 37.984L84.8302 38.6768C85.4234 41.1408 86.3363 43.4285 87.9042 44.9251L89.948 42.784L91.9918 40.6429C91.6823 40.3475 91.1019 39.4352 90.5858 37.2912L87.708 37.984ZM89.948 42.784L87.9569 44.9742C89.3567 46.2467 91.0685 47.024 93.02 47.024V44.064V41.104C92.7529 41.104 92.4167 41.0279 91.9391 40.5938L89.948 42.784Z" fill="white" mask="url(#path-3-outside-2_2933_5150)"/>
</g>
<defs>
<filter id="filter0_dd_2933_5150" x="0.224531" y="12.2524" width="38.5392" height="43.5475" filterUnits="userSpaceOnUse" color-interpolation-filters="sRGB">
<feFlood flood-opacity="0" result="BackgroundImageFix"/>
<feColorMatrix in="SourceAlpha" type="matrix" values="0 0 0 0 0 0 0 0 0 0 0 0 0 0 0 0 0 0 127 0" result="hardAlpha"/>
<feOffset dy="5.92"/>
<feGaussianBlur stdDeviation="2.96"/>
<feComposite in2="hardAlpha" operator="out"/>
<feColorMatrix type="matrix" values="0 0 0 0 0 0 0 0 0 0 0 0 0 0 0 0 0 0 0.25 0"/>
<feBlend mode="normal" in2="BackgroundImageFix" result="effect1_dropShadow_2933_5150"/>
<feColorMatrix in="SourceAlpha" type="matrix" values="0 0 0 0 0 0 0 0 0 0 0 0 0 0 0 0 0 0 127 0" result="hardAlpha"/>
<feOffset dy="1.48"/>
<feGaussianBlur stdDeviation="0.74"/>
<feComposite in2="hardAlpha" operator="out"/>
<feColorMatrix type="matrix" values="0 0 0 0 0 0 0 0 0 0 0 0 0 0 0 0 0 0 0.25 0"/>
<feBlend mode="normal" in2="effect1_dropShadow_2933_5150" result="effect2_dropShadow_2933_5150"/>
<feBlend mode="normal" in="SourceGraphic" in2="effect2_dropShadow_2933_5150" result="shape"/>
</filter>
<filter id="filter1_dd_2933_5150" x="28.5644" y="0.528076" width="90.1681" height="67.1679" filterUnits="userSpaceOnUse" color-interpolation-filters="sRGB">
<feFlood flood-opacity="0" result="BackgroundImageFix"/>
<feColorMatrix in="SourceAlpha" type="matrix" values="0 0 0 0 0 0 0 0 0 0 0 0 0 0 0 0 0 0 127 0" result="hardAlpha"/>
<feOffset dy="5.92"/>
<feGaussianBlur stdDeviation="2.96"/>
<feComposite in2="hardAlpha" operator="out"/>
<feColorMatrix type="matrix" values="0 0 0 0 0 0 0 0 0 0 0 0 0 0 0 0 0 0 0.25 0"/>
<feBlend mode="normal" in2="BackgroundImageFix" result="effect1_dropShadow_2933_5150"/>
<feColorMatrix in="SourceAlpha" type="matrix" values="0 0 0 0 0 0 0 0 0 0 0 0 0 0 0 0 0 0 127 0" result="hardAlpha"/>
<feOffset dy="1.48"/>
<feGaussianBlur stdDeviation="0.74"/>
<feComposite in2="hardAlpha" operator="out"/>
<feColorMatrix type="matrix" values="0 0 0 0 0 0 0 0 0 0 0 0 0 0 0 0 0 0 0.25 0"/>
<feBlend mode="normal" in2="effect1_dropShadow_2933_5150" result="effect2_dropShadow_2933_5150"/>
<feBlend mode="normal" in="SourceGraphic" in2="effect2_dropShadow_2933_5150" result="shape"/>
</filter>
</defs>
</svg>
