<svg width="259" height="42" viewBox="0 0 259 42" fill="none" xmlns="http://www.w3.org/2000/svg">
<path d="M241.95 39.6786C241.074 40.5804 239.87 41.0897 238.613 41.0897H20.5267C19.2698 41.0897 18.0662 40.5804 17.1906 39.6786C11.44 33.7555 7.54064 29.7392 2.14591 24.1826C0.39451 22.3787 0.394508 19.506 2.14591 17.7021C7.54064 12.1455 11.44 8.12925 17.1906 2.20607C18.0662 1.30426 19.2698 0.795044 20.5268 0.795044H238.613C239.87 0.795044 241.074 1.30426 241.95 2.20607C247.7 8.12925 251.599 12.1455 256.994 17.7021C258.746 19.506 258.746 22.3787 256.994 24.1826C251.599 29.7392 247.7 33.7555 241.95 39.6786Z" fill="url(#paint0_linear_1586_21671)"/>
<defs>
<linearGradient id="paint0_linear_1586_21671" x1="-1" y1="20.9424" x2="260.14" y2="20.9424" gradientUnits="userSpaceOnUse">
<stop stop-color="#9356BA"/>
<stop offset="1" stop-color="#F8298A"/>
</linearGradient>
</defs>
</svg>
