<svg width="44" height="47" viewBox="0 0 44 47" fill="none" xmlns="http://www.w3.org/2000/svg">
<path d="M23.7282 38.9861C18.8074 38.4072 17.6255 37.2132 17.0345 32.2924C16.9862 31.9064 16.4314 31.9064 16.3953 32.2924C15.8163 37.2132 14.6223 38.3951 9.70157 38.9861C9.31562 39.0343 9.31562 39.5891 9.70157 39.6253C14.6223 40.2042 15.8043 41.3982 16.3953 46.319C16.4435 46.7049 16.9983 46.7049 17.0345 46.319C17.6134 41.3982 18.8074 40.2163 23.7282 39.6253C24.1141 39.5771 24.1141 39.0223 23.7282 38.9861Z" fill="#64CEFF"/>
<path d="M42.7751 12.6008C33.8958 11.5562 31.763 9.40164 30.6966 0.522314C30.6096 -0.174105 29.6085 -0.174105 29.5432 0.522314C28.4986 9.40164 26.344 11.5344 17.4647 12.6008C16.7683 12.6879 16.7683 13.689 17.4647 13.7543C26.344 14.7989 28.4768 16.9534 29.5432 25.8328C29.6302 26.5292 30.6313 26.5292 30.6966 25.8328C31.7413 16.9534 33.8958 14.8207 42.7751 13.7543C43.4716 13.6672 43.4716 12.6661 42.7751 12.6008Z" fill="#64CEFF"/>
<path d="M11.0712 24.2251C7.26575 23.7774 6.3517 22.854 5.89468 19.0486C5.85737 18.7501 5.42833 18.7501 5.40035 19.0486C4.95265 22.854 4.02928 23.768 0.223849 24.2251C-0.0746162 24.2624 -0.0746162 24.6914 0.223849 24.7194C4.02928 25.1671 4.94332 26.0905 5.40035 29.8959C5.43766 30.1944 5.8667 30.1944 5.89468 29.8959C6.34238 26.0905 7.26575 25.1764 11.0712 24.7194C11.3696 24.6821 11.3696 24.253 11.0712 24.2251Z" fill="#64CEFF"/>
</svg>
