<svg width="27" height="20" viewBox="0 0 27 20" fill="none" xmlns="http://www.w3.org/2000/svg">
<path fill-rule="evenodd" clip-rule="evenodd" d="M25.6006 2.43576C26.0041 2.85737 26.2937 3.38161 26.4407 3.95602C26.9844 6.07614 26.9844 10.4974 26.9844 10.4974C26.9844 10.4974 26.9844 14.9186 26.4407 17.0387C26.2937 17.6132 26.0041 18.1374 25.6006 18.559C25.1972 18.9806 24.6943 19.2848 24.1421 19.4411C22.1094 20.0087 13.9844 20.0087 13.9844 20.0087C13.9844 20.0087 5.85938 20.0087 3.82665 19.4411C3.27447 19.2848 2.77151 18.9806 2.3681 18.559C1.9647 18.1374 1.67501 17.6132 1.52801 17.0387C0.984375 14.9186 0.984375 10.4974 0.984375 10.4974C0.984375 10.4974 0.984375 6.07614 1.52801 3.95602C1.67501 3.38161 1.9647 2.85737 2.3681 2.43576C2.77151 2.01415 3.27447 1.70996 3.82665 1.55364C5.85938 0.986023 13.9844 0.986023 13.9844 0.986023C13.9844 0.986023 22.1094 0.986023 24.1421 1.55364C24.6943 1.70996 25.1972 2.01415 25.6006 2.43576ZM18.1238 10.4979L11.3283 6.48321V14.5126L18.1238 10.4979Z" fill="#F8298A"/>
</svg>
