<svg width="22" height="14" viewBox="0 0 22 14" fill="none" xmlns="http://www.w3.org/2000/svg">
<mask id="path-1-outside-1_1189_20327" maskUnits="userSpaceOnUse" x="0.582031" y="0.95459" width="20" height="13" fill="black">
<rect fill="white" x="0.582031" y="0.95459" width="20" height="13"/>
<path d="M17.5983 13.0066L19.1911 6.53008L19.3396 5.90163L18.8006 5.63229L18.3596 5.88919L15.0446 7.81512L11.6865 3.35103L11.4503 3.03518L10.4006 2.95459L10.0995 3.35643L6.74561 7.81512L3.27312 5.79779L2.58203 6.46194L4.19192 13.0072"/>
</mask>
<path d="M17.5983 13.0066L19.1911 6.53008L19.3396 5.90163L18.8006 5.63229L18.3596 5.88919L15.0446 7.81512L11.6865 3.35103L11.4503 3.03518L10.4006 2.95459L10.0995 3.35643L6.74561 7.81512L3.27312 5.79779L2.58203 6.46194L4.19192 13.0072" fill="white"/>
<path d="M19.1911 6.53008L20.1622 6.76892L20.1644 6.75995L19.1911 6.53008ZM19.3396 5.90163L20.3128 6.13149L20.4948 5.36102L19.7866 5.00711L19.3396 5.90163ZM18.8006 5.63229L19.2477 4.73777L18.7643 4.49619L18.2973 4.76819L18.8006 5.63229ZM18.3596 5.88919L18.8619 6.75385L18.8629 6.75329L18.3596 5.88919ZM15.0446 7.81512L14.2454 8.41627L14.7792 9.12581L15.5469 8.67978L15.0446 7.81512ZM11.6865 3.35103L10.8857 3.94994L10.8873 3.95217L11.6865 3.35103ZM11.4503 3.03518L12.2511 2.43626L11.9793 2.07285L11.5268 2.03811L11.4503 3.03518ZM10.4006 2.95459L10.4771 1.95752L9.92963 1.91549L9.60034 2.35492L10.4006 2.95459ZM10.0995 3.35643L10.8986 3.95756L10.8997 3.9561L10.0995 3.35643ZM6.74561 7.81512L6.24328 8.67979L7.01103 9.12581L7.54477 8.41625L6.74561 7.81512ZM3.27312 5.79779L3.77546 4.93311L3.12369 4.55447L2.58021 5.07676L3.27312 5.79779ZM2.58203 6.46194L1.88912 5.74092L1.4732 6.14062L1.61097 6.70078L2.58203 6.46194ZM18.5693 13.2455L20.1622 6.76891L18.2201 6.29126L16.6272 12.7678L18.5693 13.2455ZM20.1644 6.75995L20.3128 6.13149L18.3664 5.67176L18.2179 6.30022L20.1644 6.75995ZM19.7866 5.00711L19.2477 4.73777L18.3536 6.5268L18.8925 6.79614L19.7866 5.00711ZM18.2973 4.76819L17.8563 5.02509L18.8629 6.75329L19.304 6.49639L18.2973 4.76819ZM17.8572 5.02452L14.5422 6.95045L15.5469 8.67978L18.8619 6.75385L17.8572 5.02452ZM15.8437 7.21397L12.4856 2.74988L10.8873 3.95217L14.2454 8.41627L15.8437 7.21397ZM12.4873 2.75212L12.2511 2.43626L10.6494 3.63409L10.8857 3.94994L12.4873 2.75212ZM11.5268 2.03811L10.4771 1.95752L10.324 3.95166L11.3737 4.03224L11.5268 2.03811ZM9.60034 2.35492L9.29921 2.75677L10.8997 3.9561L11.2008 3.55426L9.60034 2.35492ZM9.30031 2.75531L5.94646 7.21399L7.54477 8.41625L10.8986 3.95756L9.30031 2.75531ZM7.24794 6.95044L3.77546 4.93311L2.77079 6.66246L6.24328 8.67979L7.24794 6.95044ZM2.58021 5.07676L1.88912 5.74092L3.27494 7.18296L3.96604 6.51881L2.58021 5.07676ZM1.61097 6.70078L3.22086 13.246L5.16298 12.7683L3.55309 6.22309L1.61097 6.70078Z" fill="#F8298A" mask="url(#path-1-outside-1_1189_20327)"/>
<path d="M2.27685 7.01656C3.26563 7.01656 4.05369 6.20352 4.05369 5.21855C4.05369 4.23358 3.26563 3.42053 2.27685 3.42053C1.28806 3.42053 0.5 4.23358 0.5 5.21855C0.5 6.20352 1.28806 7.01656 2.27685 7.01656Z" fill="white" stroke="#F8298A" stroke-miterlimit="10"/>
<path d="M10.896 4.09603C11.8848 4.09603 12.6728 3.28299 12.6728 2.29802C12.6728 1.31304 11.8848 0.5 10.896 0.5C9.9072 0.5 9.11914 1.31304 9.11914 2.29802C9.11914 3.28299 9.9072 4.09603 10.896 4.09603Z" fill="white" stroke="#F8298A" stroke-miterlimit="10"/>
<path d="M19.5142 7.01656C20.5029 7.01656 21.291 6.20352 21.291 5.21855C21.291 4.23358 20.5029 3.42053 19.5142 3.42053C18.5254 3.42053 17.7373 4.23358 17.7373 5.21855C17.7373 6.20352 18.5254 7.01656 19.5142 7.01656Z" fill="white" stroke="#F8298A" stroke-miterlimit="10"/>
</svg>
