<svg xmlns="http://www.w3.org/2000/svg" width="184" height="38" viewBox="0 0 184 38" fill="none">
    <g clip-path="url(#clip0_87_1981)">
      <mask id="mask0_87_1981" style="mask-type:luminance" maskUnits="userSpaceOnUse" x="0" y="0" width="184" height="38">
        <path d="M184 0.269531H0V37.0949H184V0.269531Z" fill="white"/>
      </mask>
      <g mask="url(#mask0_87_1981)">
        <mask id="mask1_87_1981" style="mask-type:luminance" maskUnits="userSpaceOnUse" x="0" y="0" width="184" height="38">
          <path d="M184 0.269531H0V37.0949H184V0.269531Z" fill="white"/>
        </mask>
        <g mask="url(#mask1_87_1981)">
          <path d="M70.7504 3.88252C70.657 3.78233 70.5344 3.68802 70.3885 3.59961C70.6803 3.55836 70.9021 3.45226 71.0481 3.28723C71.194 3.1222 71.2699 2.91591 71.2699 2.66247C71.2699 2.46208 71.2232 2.28526 71.1239 2.13202C71.0247 1.97878 70.8963 1.87269 70.7387 1.80785C70.5753 1.74891 70.3184 1.71944 69.9624 1.71944H68.5498V5.0731H69.2211V3.67623H69.3553C69.5129 3.67623 69.6238 3.68802 69.6939 3.7116C69.7639 3.73517 69.834 3.78233 69.8982 3.85305C69.9624 3.91789 70.0791 4.08292 70.2542 4.34814L70.7387 5.07899H71.5384L71.1298 4.42477C70.9722 4.16543 70.8438 3.98272 70.7504 3.88252ZM69.7172 3.14578H69.2211V2.29705H69.7464C70.0149 2.29705 70.1784 2.29705 70.2367 2.30884C70.3418 2.32652 70.4293 2.37367 70.4877 2.4385C70.5519 2.50923 70.5753 2.59764 70.5753 2.70963C70.5753 2.80982 70.5519 2.89234 70.5111 2.96307C70.4644 3.0279 70.4002 3.07505 70.3243 3.10452C70.2426 3.1281 70.0383 3.14578 69.7172 3.14578ZM81.3621 17.3797H78.3093V14.1969C78.3093 13.3011 79.3833 12.5702 80.2705 12.5702H83.2883C83.0081 11.5329 82.6345 10.4484 82.1676 9.31085H84.1346C85.3721 9.31085 86.4753 10.0771 86.9306 11.2382C87.0998 11.6743 87.2458 12.1164 87.3567 12.5702H92.4057C92.3123 12.193 92.1255 11.6272 91.8453 10.8727C91.6585 10.2126 91.4718 9.69396 91.285 9.31674H93.1645C94.3669 9.31674 95.4409 10.0653 95.8904 11.1969C96.0713 11.6507 96.2172 12.1046 96.334 12.5761H99.9763C100.367 12.0633 100.712 11.4562 101.004 10.7431C101.401 9.77647 102.375 9.18118 103.414 9.18118H105.866C105.772 9.36979 105.632 9.6527 105.446 10.0299C104.885 11.1616 104.418 12.0103 104.045 12.5761H107.337C108.23 12.5761 109.304 13.3069 109.304 14.2087V17.3915H106.07C105.807 17.3915 105.568 17.3148 105.358 17.197C105.772 17.6213 106.158 18.0221 106.52 18.3875C107.594 19.4838 107.378 21.1813 106.053 22.0241L106.023 22.0418C106.023 22.0418 106.006 22.0418 106 22.0418C105.376 21.1577 104.453 20.1439 103.233 19.0123C102.866 18.6704 102.936 18.0987 103.385 17.8512C103.846 17.5977 104.307 17.3266 104.768 17.0496C104.879 16.9789 105.025 16.9966 105.148 17.0496C104.827 16.7785 104.617 16.3777 104.617 15.918C104.617 15.5643 104.331 15.2696 103.975 15.2696H83.3466C83.0898 15.2696 82.8855 15.4759 82.8855 15.7353V15.8767C82.8855 16.2952 82.7162 16.6783 82.4419 16.9494C82.9614 17.2087 83.5334 17.5506 84.123 17.9278C84.479 18.1577 84.5666 18.6056 84.3214 18.9298C84.2455 19.03 84.1813 19.1361 83.8253 19.5958C83.2357 20.3443 82.4711 21.252 81.5138 22.307C81.5138 22.307 81.4963 22.3129 81.4905 22.307C80.2063 21.6705 80.1363 20.2972 80.755 19.0948C81.0644 18.4877 81.5197 17.8689 82.01 17.2441C81.8232 17.3325 81.6131 17.3797 81.3913 17.3797M69.8865 0.269531H69.8515C68.1471 0.275425 66.7579 1.68408 66.7579 3.40511C66.7579 5.12615 68.1529 6.54069 69.8632 6.54069C71.5734 6.54069 72.9684 5.13204 72.9684 3.40511C72.9684 1.67819 71.5967 0.275425 69.8865 0.269531ZM69.8748 5.857C68.5382 5.857 67.4466 4.75483 67.4466 3.40511C67.4466 2.0554 68.5382 0.953229 69.8748 0.953229C71.2115 0.953229 72.303 2.0554 72.303 3.40511C72.303 4.75483 71.2173 5.857 69.8748 5.857ZM79.2199 6.26368V5.46799H97.3029C100.297 5.54462 102.977 5.50925 105.726 4.86092C107.354 4.47781 108.241 5.56819 108.241 6.79413L108.212 7.57803C104.523 8.31477 101.517 8.43265 98.0034 8.46212H81.3971C80.1947 8.46212 79.2199 7.47783 79.2199 6.26368ZM34.5668 19.9259L45.6396 37.1008H40.9233C39.7384 37.1008 38.6235 36.5114 37.9464 35.533L31.4673 26.144V33.4407C31.4673 35.4623 29.8446 37.1067 27.8367 37.1067H25.5719V7.86683C25.5719 5.84521 27.1946 4.2008 29.2026 4.2008H31.4673V13.7903L37.6312 5.83931C38.4309 4.80787 39.6625 4.2008 40.9641 4.2008H45.6337L34.5726 19.92L34.5668 19.9259ZM23.1029 31.2717L23.6574 31.2599V31.8198C23.6574 32.5743 23.6516 33.37 23.6457 34.1656V34.1892C23.6341 35.7747 22.3616 37.0596 20.7914 37.0596C19.7875 37.0596 18.7426 37.0655 18.0597 37.0714C16.9448 37.0714 15.8417 37.0772 14.7326 37.0831C13.0165 37.0714 11.6565 36.6824 11.2071 36.5409C6.40321 34.8317 -0.0116581 30.6116 1.59107e-05 20.2795V20.25C0.373584 12.2578 5.14826 6.40513 12.8006 4.43655C13.2734 4.34225 13.9096 4.25384 14.6859 4.24795C14.7209 4.24795 14.7501 4.24795 14.7793 4.24795C15.9526 4.24795 17.1316 4.23616 18.3165 4.23027C19.9042 4.21848 21.4919 4.2008 23.062 4.2008H23.6341L23.6049 7.57803C23.5932 9.05152 22.3966 10.2421 20.9374 10.2362H19.2738C18.5967 10.2008 14.8785 10.2716 13.9096 10.6311C8.99484 12.1458 6.29815 15.6704 6.29231 20.5742C6.56665 25.6489 9.17579 28.7727 12.0418 30.3051C12.7013 30.6352 14.1664 31.2187 16.472 31.2187C18.8711 31.2953 21.165 31.3189 23.1146 31.2835M70.7212 20.2264C70.7445 30.4053 64.5573 34.6725 59.7768 36.4525C59.771 36.4525 59.7651 36.4525 59.7593 36.4584C59.485 36.5586 59.3507 36.6057 59.0822 36.6941C58.1366 36.9653 56.7065 37.0772 56.2279 37.089C54.9029 37.089 53.9982 37.0831 52.6615 37.0772C52.072 37.0772 51.2139 37.0772 50.35 37.0714C48.5464 37.0714 47.0813 35.592 47.0755 33.7707C47.0755 32.8925 47.0696 32.1028 47.0696 31.8257V31.2658L47.6242 31.2776C49.9531 31.3248 52.7782 31.2776 55.6734 31.1597C56.2279 31.1185 57.1385 30.9947 58.0491 30.6175C58.2066 30.5468 58.3701 30.4642 58.5277 30.3876C58.5861 30.3581 58.6444 30.3346 58.697 30.3051C61.5629 28.7727 64.1721 25.6489 64.4464 20.5506C64.4406 15.6822 61.7439 12.1517 56.8583 10.6488C55.8602 10.2834 54.3951 10.2185 51.8385 10.2421H50.1282C48.488 10.2539 47.1572 8.91596 47.1514 7.25976C47.1514 6.18116 47.1514 4.20669 47.1514 4.20669H47.665C49.2352 4.20669 50.8228 4.21848 52.4105 4.23616C53.3561 4.24205 54.2959 4.24795 55.2356 4.25384C55.2356 4.25384 55.2823 4.25384 55.364 4.25384C55.5508 4.25384 55.7376 4.25384 55.9244 4.25384C56.5022 4.27152 57.3895 4.33636 58.3467 4.56033C65.7539 6.635 70.3535 12.417 70.7212 20.2382M142.055 25.6076L143.62 25.867C143.059 27.1047 142.388 28.1538 141.833 28.9554C141.378 29.6214 140.473 29.7805 139.791 29.3562L138.43 28.3896C138.716 27.9475 138.927 27.5762 139.16 27.1224C139.674 26.1145 140.946 25.419 142.055 25.6017M154.004 15.6822C153.256 16.248 152.323 16.7667 151.202 17.2382C151.202 17.2382 150.426 17.639 150.128 17.1027C149.801 16.5191 150.478 16.0064 150.478 16.0064C152.597 14.3384 154.255 10.2126 154.938 6.55248C155.177 5.27939 156.274 4.35993 157.558 4.35993H159.899C159.339 7.28333 158.638 9.64681 157.798 11.4386V11.4739C156.461 14.0496 154.009 15.6822 154.009 15.6822M183.726 35.3798V35.7806H171.246C168.071 35.7806 165.497 35.0262 163.535 33.5173C162.321 34.6489 160.681 35.7334 158.627 36.7708V35.4446C158.627 34.5311 159.088 33.7 159.823 33.1696C160.553 32.645 161.131 32.0969 161.568 31.531C160.167 29.5507 159.187 26.2442 158.627 21.6233C160.302 21.6233 161.749 22.808 162.111 24.4524C162.45 26.0084 162.835 27.3287 163.255 28.4131C163.629 27.2815 163.816 25.9141 163.816 24.311V20.7333C163.816 19.8964 163.144 19.2127 162.31 19.2127H159.327V17.1557C159.327 16.6606 159.52 16.1891 159.846 15.8178C161.545 13.8846 162.823 11.7156 163.676 9.31085H159.887V8.52106C159.887 7.39532 160.792 6.48175 161.907 6.48175H167.458V8.6743C167.458 9.09867 167.376 9.52303 167.219 9.91203C166.174 12.4818 165.065 14.639 163.244 16.3895H165.38C166.296 16.3895 167.038 17.138 167.038 18.0634V23.6096C167.131 26.8218 166.617 29.4151 165.497 31.3955C166.898 32.6214 168.859 33.2344 171.386 33.2344H181.595C182.768 33.2344 183.72 34.1951 183.72 35.3798M157.786 13.6134V36.7708H156.385C155.066 36.7708 154.004 35.6922 154.004 34.366V17.1439C155.819 15.9003 157.016 14.6449 157.792 13.6134M182.914 11.4327H182.185V6.48175H176.435V6.01024C176.435 5.02005 175.641 4.21258 174.655 4.21258H172.787V6.47586H168.584V7.4071C168.584 8.22047 169.238 8.88059 170.044 8.88059H172.793V11.4268H167.189V12.4818C167.189 13.3069 167.849 13.973 168.666 13.973H172.793V16.5192H168.45V17.4032C168.45 18.2461 169.121 18.9239 169.956 18.9239H172.793V21.3286H168.17V22.2658C168.17 23.1557 168.882 23.8748 169.764 23.8748H172.793V26.5624H167.47V27.5644C167.47 28.419 168.153 29.1086 168.999 29.1086H172.799V32.2206H176.441V29.1086H183.171V27.9711C183.171 27.1931 182.547 26.5624 181.776 26.5624H176.441V23.8748H182.611V22.7962C182.611 21.9828 181.957 21.3286 181.157 21.3286H176.441V18.9239H178.262C180.971 19.0182 182.278 17.6508 182.191 14.8158V13.9671H184.012V12.5231C184.012 11.916 183.521 11.4209 182.92 11.4209M179.097 14.8276C179.097 15.9592 178.537 16.525 177.416 16.525H176.435V13.9789H179.097V14.8276ZM179.097 11.4327H176.435V8.88649H179.097V11.4327ZM110.209 33.5703C107.78 33.588 105.358 33.3641 102.93 32.9043C100.531 32.4446 99.7778 32.032 98.8672 31.6489C100.706 31.0065 103.443 29.2147 105.323 27.6823C106.239 26.9397 106.479 26.4976 106.706 25.3129C106.887 24.3935 106.776 23.4917 105.848 23.4917H88.5999C89.0727 23.1793 89.6448 22.808 90.3044 22.3895C90.3102 22.3895 90.6779 22.1302 90.9347 21.9475H98.0442C99.2175 21.8591 102.434 22.1243 102.86 21.9475C103.286 21.7707 104.424 20.9455 103.07 19.4484C102.609 18.9357 101.774 18.753 101.774 18.753C100.776 18.4465 99.4509 18.6174 98.7447 19.3306C98.2894 19.7903 97.7349 19.6901 97.087 19.7372H94.5829C94.8222 19.5663 95.0674 19.4072 95.3183 19.2539C96.1063 18.7824 96.2464 17.7981 95.5985 17.1734C95.3534 16.9376 95.0849 16.6842 94.7989 16.4072C94.2677 15.9003 93.4155 15.8001 92.7501 16.1596C92.2714 16.419 91.9095 16.6017 91.6527 16.7137C91.641 16.7137 91.641 16.7313 91.6527 16.7372C92.8026 17.863 93.7423 18.8649 94.4837 19.7314H90.6721C89.9249 19.7314 89.493 19.5781 89.3879 19.2657C89.2829 18.9592 89.2303 18.8414 89.2303 18.2225C89.2303 17.9985 89.242 17.8099 89.2595 17.6331C89.3354 17.0025 88.8101 16.4543 88.1096 16.4543H85.3546C85.0977 16.4543 84.8876 16.6429 84.8876 16.8787C84.8876 18.0752 84.9168 18.6763 84.9168 19.2304C84.9168 20.3031 84.8351 20.309 84.946 21.1046C84.9927 21.4524 85.5122 21.6528 86.2476 21.7766C84.5549 24.3227 82.2143 27.3935 80.1129 28.8552C79.0681 29.586 78.0466 31.0595 78.9455 31.9613C79.1148 32.1322 79.5759 32.592 79.7452 32.7806C79.7452 32.7865 81.7298 31.0595 81.7356 31.0536C83.656 29.5684 84.7242 27.9239 86.2651 26.5448C86.271 26.5448 86.2827 26.5448 86.2885 26.5448C87.917 28.643 89.3704 30.3169 91.2208 31.5723C88.4073 32.4682 86.3177 33.0753 84.3273 33.3817C83.2474 33.5468 83.1657 33.6705 81.9925 33.7531C80.5332 33.8533 79.5876 35.6981 80.0896 37.0831C80.0896 37.089 80.1013 37.0949 80.1071 37.0949C82.9964 36.7767 84.6191 36.3228 87.0765 35.7334C89.5339 35.144 92.6683 34.6725 95.079 33.6116H95.0907C97.875 34.9967 99.7019 35.2383 101.546 35.6568C103.665 36.1342 105.72 36.4879 107.704 36.7295C108.761 36.8592 109.777 36.3051 110.273 35.3562C110.384 35.144 110.512 34.9319 110.652 34.7256C110.891 34.3778 110.617 33.5586 110.197 33.5645M95.079 29.9161C95.079 29.9161 94.5537 29.7923 94.5537 29.7864C93.1528 29.1381 92.966 29.256 90.3627 26.81C90.3511 26.8041 89.8374 26.2501 89.8549 26.2501L102.539 26.2618C102.539 26.2618 101.22 26.9043 101.202 26.9102C97.7115 28.8552 97.4547 29.144 95.079 29.9161ZM130.229 30.5409C127.988 32.4328 124.854 33.9417 120.838 35.0733V33.6941C120.838 32.5743 121.556 31.6136 122.595 31.2246C127.113 29.5389 129.669 27.9475 130.229 27.5762V30.5468V30.5409ZM121.258 21.1989C121.258 25.5428 120.791 28.7491 119.857 30.8238C119.017 32.8984 117.289 34.926 114.668 36.9063C114.668 36.9063 114.043 37.2128 113.827 36.7649C113.571 36.2167 114.166 35.4505 114.166 35.4505C115.94 32.9986 117.236 27.3287 117.05 22.0477V8.66841C117.05 7.46015 118.018 6.48175 119.215 6.48175H129.523C129.523 5.23224 130.527 4.21848 131.765 4.21848H134.706V6.48175H143.981C145.283 6.48175 146.34 7.54856 146.34 8.86291V9.31085H121.246V16.6724V19.36V21.1989H121.258ZM124.112 28.7845C123.698 27.9063 123.202 26.7628 122.852 25.4485H124.433C125.554 25.4485 126.704 26.3444 127.048 27.423C127.2 27.9063 127.352 28.3071 127.562 28.7904L126.062 29.5212C125.321 29.8277 124.457 29.5212 124.106 28.7904M143.97 13.4248C143.97 12.4818 143.217 11.7215 142.283 11.7215H134.998V9.88256H130.936V11.7215H124.661C123.71 11.7215 122.945 12.4995 122.945 13.4543V14.4091H130.936H134.998H140.182V16.6724H134.998V15.3934H130.936V16.6724H122.449V19.36H130.936V21.7648H124.509C123.494 21.7648 122.665 22.6017 122.665 23.6273V24.4583H130.936V32.2442C131.029 33.4701 130.469 34.036 129.255 33.9417H127.994V36.6293H130.656C133.644 36.7236 135.092 35.3091 135.004 32.3857V29.8395C137.152 32.1028 140.935 34.1303 146.357 35.9279V35.0497C146.357 34.0654 145.785 33.1637 144.898 32.757C143.17 31.9672 140.164 30.1401 138.652 28.9849C137.31 27.9534 135.43 26.0968 135.004 25.2599V24.4642H139.767C142.662 24.5585 144.063 23.1439 143.976 20.2206V19.3718H144.775C145.96 19.3718 146.923 18.3993 146.923 17.2028V16.6783H143.981V13.4307L143.97 13.4248ZM138.366 21.7648H134.998V19.36H140.182V19.7844C140.275 21.1989 139.668 21.8591 138.36 21.7648" fill="#FC1682"/>
        </g>
      </g>
    </g>
    <defs>
      <clipPath id="clip0_87_1981">
        <rect width="184" height="36.8254" fill="white" transform="translate(0 0.269531)"/>
      </clipPath>
    </defs>
  </svg>